<svg xmlns="http://www.w3.org/2000/svg" viewBox="0 0 76.84 76.84"><defs><style>.cls-1{fill:#2e3192;}.cls-2{fill:#262262;}.cls-3{fill:#1b75bc;}</style></defs><title>logo1</title><g id="Layer_2" data-name="Layer 2"><g id="Layer_1-2" data-name="Layer 1"><path class="cls-1" d="M60,66.62s-15.17,3-16.89,2.2-5.74-1.6-6.08-2.08.59-2.85,1.65-2.94,3.72.4,3.43-.27-3.52-10.37-2.86-11.38c0,0-8.24,2.15-9.42-.26,0,0,.17,5.39-.5,6.15s-3.86,7.79-3.54,8.74,2.16,2.34,1.17,3.36a3.75,3.75,0,0,1-2.34,1.38c-.26,0-2.58.36-4.9.45a38.43,38.43,0,0,0,43.41-4.11C63.09,66.1,60,66.62,60,66.62Z"/><path class="cls-2" d="M22.84,46.67c.38-.73,2.33-5.84,4.25-6s.52,3.11.78,3.37S28.7,46.22,41,39.6l-.18-1.18a3,3,0,0,0-.16-1.66s-5.88-7.58-6.45-4-2.68,2.56-2.68,2.56-1.87-2.14-2-6.58c0,0-2.32-1.35-2.14-2.11,0,0-1.71-1.93-.51-2.81,0,0,.19-1-1.72-.57a2.28,2.28,0,0,1-.71-.2c-.33-.15-4.17-2.23-14.73-10.11a38.42,38.42,0,0,0,6.18,56.56,26.6,26.6,0,0,0,3-1C19.32,68,22.47,47.4,22.84,46.67Z"/><path class="cls-3" d="M27.06,19.59c0,.07-.44,1.06.91,2.35a2.41,2.41,0,0,0,1.82-.21s.67-.06,2.26,2.37c0,0,1.15,1.3,1.83.39a3.35,3.35,0,0,0,0-3.17c-.37-.4-1.12-1.44-1.8-1.24s-1.71.39-1.88.11a9.88,9.88,0,0,1-1.14-3S27.82,15.5,28,15.07a14.68,14.68,0,0,0,1.08-2.31c.2-.81,2.59-2.64,4.34-2.15a6.58,6.58,0,0,1,4.37,6.77s-.79-.35-.92-.19-.15,1.53,1.39,1.52c0,0,2.69-3.41,6.34-1.56,0,0,1.24-.17,3.47,13.76,0,0,1.22,2.4,1.69,3.61,1.15,3,2.51,7.23,1.93,10.76,0,0-4.1,7.74-3.51,15.84,0,0,4.77-1,6.54-.31s5.77,2.18,6.87,2.07,1.59-3.09,4.57-2.07c0,0,.7.83.47,3.66A38.42,38.42,0,0,0,13.23,9.41c5.53,4,12.77,9.18,13.62,9.91A1.57,1.57,0,0,1,27.06,19.59Z"/></g></g></svg>