<svg xmlns="http://www.w3.org/2000/svg" xmlns:xlink="http://www.w3.org/1999/xlink" viewBox="0 0 336.02 346.67"><defs><style>.cls-1{fill:none;}.cls-2{clip-path:url(#clip-path);}</style><clipPath id="clip-path"><rect class="cls-1" width="336.96" height="347"/></clipPath></defs><title>students1</title><g id="Layer_2" data-name="Layer 2"><g id="Layer_1-2" data-name="Layer 1"><g class="cls-2"><path d="M218.82,49.6A24.8,24.8,0,1,0,194,24.8a24.83,24.83,0,0,0,24.8,24.8Z"/><path d="M333.11,33.11c-3.19-6.33-8.43-12-11.28-14.88-6.46-6.46-16.17-14.17-25.71-14.17a15.61,15.61,0,0,0-11.27,4.61L189,104.51a25.13,25.13,0,0,0-.14,35.36l-13,13-59.44,4.63C109.58,143.93,99.91,135,83.23,135a71.07,71.07,0,0,0-18.93,3c-12.93,3.59-30.53,10.62-34.16,30.18-2.45,13.16,1.69,29.71,7.8,51.65,9.24,33.29,20.77,55.46,47,55.46l1,0c6.12,15.12-.77,28.49-9.2,35.77C66.2,320.11,46.86,325.22,27,309.71a8,8,0,0,0-11.72,2.09L1.2,334.45a8,8,0,0,0,13.59,8.44l9.66-15.56c23.59,14,47.94,8.56,62.73-4.19,15.18-13.09,20.54-32.43,14.77-50.5,8.6-2.43,15.27-5.71,20.31-9.8,17.82-4.83,34,.52,43.56,14.48,8.54,12.51,12.52,34.79-4.39,56.43a8,8,0,0,0,6.31,12.93h26.67a8,8,0,1,0,0-16H182.2a65.88,65.88,0,0,0,6.88-26.37,59.65,59.65,0,0,0-10-36c-10.46-15.31-26.94-23.48-45.26-23.17,3.64-13.22,1-30.24-4.68-50.62C127,187,125,179.74,122.75,173l35.74-2.78-.35.35a8,8,0,1,0,11.31,11.32l30.73-30.73a25.09,25.09,0,0,0,35.36-.14l95.84-95.85c3.19-3.19,7.65-10.3,1.72-22.08ZM113.68,198.78c12,43.11,5,52.56-16.23,58.5a47,47,0,0,1-12.53,2c-12,0-21.45-7.32-31.56-43.74-5.53-19.85-9.3-34.67-7.49-44.45,1.16-6.23,4.71-12.68,22.71-17.68A55.71,55.71,0,0,1,83.23,151c6.67,0,11.41,2.16,15.52,7.83l-25.38,2a8,8,0,0,0,.61,16l.63,0,31.59-2.46c2.33,6.46,4.72,14.5,7.49,24.47Zm110.55-59.06a9.1,9.1,0,0,1-12.87,0l-11-11a9.11,9.11,0,0,1,0-12.87L296.1,20.06h0c2.44,0,8.16,3.26,14.39,9.48,7.08,7.08,9.63,12.74,9.49,14.41Zm0,0"/></g><path d="M7.21,108.68A46.45,46.45,0,0,0,94.9,79.06l22.64-9.9a8,8,0,1,0-6.41-14.66L88.5,64.4a46.44,46.44,0,0,0-82,8.76,46.12,46.12,0,0,0,.68,35.52Zm70.94-7.5a30.47,30.47,0,0,1-52.09,8L79.91,85.62a30.27,30.27,0,0,1-1.77,15.56ZM21.43,79A30.47,30.47,0,0,1,73.5,71L19.64,94.51A30.31,30.31,0,0,1,21.43,79Zm0,0"/></g></g></svg>