<svg xmlns="http://www.w3.org/2000/svg" xmlns:xlink="http://www.w3.org/1999/xlink" viewBox="0 0 280.43 320.97"><defs><style>.cls-1{fill:none;}.cls-2{clip-path:url(#clip-path);}</style><clipPath id="clip-path" transform="translate(0)"><rect class="cls-1" y="0.09" width="280.8" height="320.91"/></clipPath></defs><title>teacher1</title><g id="Layer_2" data-name="Layer 2"><g id="Layer_1-2" data-name="Layer 1"><g class="cls-2"><path d="M157.5,79.21c-10.95,14.82-25.29,22.33-42.63,22.33h-27c-18.2,0-30.45,11-40.94,36.9L15.41,216.22a8,8,0,0,1-7.41,5,7.92,7.92,0,0,1-3-.59A8,8,0,0,1,.59,210.21l31.55-77.77C40.31,112.3,55,85.55,87.91,85.55h27c12.32,0,21.77-5,29.76-15.84a8,8,0,0,1,12.87,9.51ZM241,46.93a8,8,0,0,0,1.68-.18L274.11,40a8,8,0,0,0-3.35-15.65l-31.47,6.73A8,8,0,0,0,241,46.93ZM140.39,305H127.12V201.69l19.07-69.93a8,8,0,1,0-15.44-4.21L113,192.62H96.51L78.77,127.56a8,8,0,1,0-15.44,4.21L82.4,201.69V305H69.13a8,8,0,1,0,0,16H90.4a8,8,0,0,0,8-8V208.62h12.72V313a8,8,0,0,0,8,8h21.27a8,8,0,1,0,0-16ZM161,18.09a8,8,0,0,1-6.49,9.27l-21.66,3.81c0,.59,0,1.18,0,1.77a33,33,0,1,1-4.84-17.18l23.68-4.17A8,8,0,0,1,161,18.09ZM86.14,23.14,109.6,19a16.92,16.92,0,0,0-23.46,4.13ZM116.87,34,84.42,39.7A16.95,16.95,0,0,0,116.87,34ZM221.8,31.7v39.9a8,8,0,0,1-9.73,7.81L183.41,73v8.17a8,8,0,1,1-16,0v-41a8,8,0,0,1,6.26-7.81l38.4-8.54a8,8,0,0,1,9.73,7.81Zm-16,10-22.4,5v10l22.4,5Zm68.3,21.61-31.47-6.73a8,8,0,0,0-3.35,15.65l31.47,6.73a8,8,0,0,0,3.35-15.65Zm0,0" transform="translate(0)"/></g></g></g></svg>